<svg xmlns="http://www.w3.org/2000/svg" width="412.161" height="132.889" viewBox="0 0 412.161 132.889">
  <g id="Group_11" data-name="Group 11" transform="translate(-21.922 -23.223)">
    <path id="Path_1" data-name="Path 1" d="M287.338,59.175l-70.213,1.737-1.412.009v.2l-5.1.04-1.224.015s-24.142-.657-35.7-13.126a7.21,7.21,0,0,0-5.94-2.2c-5.168.9-10.994,1.583-17.249,2.072l-.877-6.1a.588.588,0,0,0-.563-.49l0-.7a.591.591,0,0,0,.23-.435V40.1a14.546,14.546,0,0,0,3.406-.586l3.651-1.205a2.912,2.912,0,0,0,1.875-2.579l.024-5.9a2.935,2.935,0,0,0-1.86-2.6L152.743,26a15,15,0,0,0-3.833-.636l-5.9-.02a14.565,14.565,0,0,0-3.835.61l-3.651,1.2a2.927,2.927,0,0,0-1.875,2.582l-.023,5.9a2.921,2.921,0,0,0,1.856,2.6l3.642,1.23a14.852,14.852,0,0,0,3.4.61v.083a.593.593,0,0,0,.228.438v.7a.59.59,0,0,0-.567.487l-1.015,6.7c-9.4.434-19.486.5-29.713.27l-.93-6.465a.584.584,0,0,0-.563-.487l0-.7a.607.607,0,0,0,.232-.44v-.085A14.906,14.906,0,0,0,113.606,40l3.647-1.2a2.924,2.924,0,0,0,1.878-2.585l.023-5.9a2.924,2.924,0,0,0-1.856-2.6l-3.643-1.233a14.848,14.848,0,0,0-3.833-.634l-5.9-.018a14.72,14.72,0,0,0-3.839.6L96.434,27.64a2.918,2.918,0,0,0-1.878,2.583l-.02,5.9a2.92,2.92,0,0,0,1.856,2.6l3.641,1.228a14.691,14.691,0,0,0,3.4.613c0,.028,0,.052,0,.081a.6.6,0,0,0,.231.443l0,.7a.592.592,0,0,0-.568.482l-.938,6.208C91.8,48.066,81.5,47.38,71.807,46.484l-.978-6.793a.581.581,0,0,0-.563-.488l0-.7a.6.6,0,0,0,.232-.437v-.083a14.645,14.645,0,0,0,3.407-.588l3.65-1.205a2.912,2.912,0,0,0,1.875-2.581l.019-5.9A2.913,2.913,0,0,0,77.6,25.11l-3.64-1.229a14.644,14.644,0,0,0-3.833-.634l-5.9-.024a14.4,14.4,0,0,0-3.838.611l-3.65,1.2a2.922,2.922,0,0,0-1.877,2.581l-.021,5.9a2.925,2.925,0,0,0,1.859,2.6l3.641,1.228a14.6,14.6,0,0,0,3.4.613v.082a.6.6,0,0,0,.23.439v.7a.586.586,0,0,0-.567.486L62.51,45.54C51.243,44.287,41.186,42.758,33.4,41.085a1.757,1.757,0,0,0-2.251,1.922c.683,14.375-3.262,21.311-5.818,26.96-2.7,5.962-5.193,13.57-1.507,19.142l0,.82C20.1,95.477,22.544,103.1,25.2,109.081c2.516,5.662,6.413,12.629,5.631,26.994a1.759,1.759,0,0,0,2.24,1.941c7.793-1.619,17.862-3.079,29.139-4.255l.848,5.883a.583.583,0,0,0,.562.488l0,.7a.6.6,0,0,0-.233.439v.082a14.757,14.757,0,0,0-3.406.588l-3.65,1.2a2.926,2.926,0,0,0-1.877,2.585l-.02,5.9a2.925,2.925,0,0,0,1.858,2.6l3.641,1.23a14.668,14.668,0,0,0,3.831.632l5.9.021a14.416,14.416,0,0,0,3.839-.606l3.648-1.2a2.927,2.927,0,0,0,1.875-2.585l.021-5.9a2.912,2.912,0,0,0-1.856-2.593l-3.642-1.234a15.047,15.047,0,0,0-3.4-.608v-.085a.593.593,0,0,0-.227-.438v-.7a.591.591,0,0,0,.567-.485l1.026-6.789c9.7-.83,20.009-1.446,30.363-1.782l.893,6.21a.593.593,0,0,0,.56.491v.7a.589.589,0,0,0-.231.435v.086a14.77,14.77,0,0,0-3.406.586l-3.65,1.205a2.913,2.913,0,0,0-1.875,2.582l-.023,5.9a2.925,2.925,0,0,0,1.859,2.6l3.638,1.228a14.507,14.507,0,0,0,3.833.636l5.906.023a14.486,14.486,0,0,0,3.835-.61l3.648-1.2a2.921,2.921,0,0,0,1.877-2.582l.023-5.9a2.919,2.919,0,0,0-1.859-2.6l-3.64-1.232a14.825,14.825,0,0,0-3.4-.61v-.086a.591.591,0,0,0-.227-.438l0-.7a.581.581,0,0,0,.564-.482l.979-6.463c10.228-.159,20.317-.024,29.709.476l.967,6.714a.593.593,0,0,0,.564.488l0,.7a.589.589,0,0,0-.232.438v.086a14.77,14.77,0,0,0-3.407.584l-3.65,1.2a2.922,2.922,0,0,0-1.878,2.581l-.019,5.9a2.926,2.926,0,0,0,1.858,2.6l3.641,1.227a14.466,14.466,0,0,0,3.831.637l5.9.02a14.489,14.489,0,0,0,3.838-.611l3.648-1.2a2.925,2.925,0,0,0,1.878-2.586l.021-5.9a2.923,2.923,0,0,0-1.858-2.6l-3.642-1.229a14.546,14.546,0,0,0-3.4-.611v-.083a.6.6,0,0,0-.23-.442l0-.7h0a.582.582,0,0,0,.564-.483l.924-6.1c6.248.533,12.067,1.249,17.227,2.19a7.2,7.2,0,0,0,5.954-2.162c11.651-12.389,35.795-12.878,35.795-12.878l1.219.019,5.106.077v.2l1.411.019,70.486.813Z" transform="translate(0 0)" fill="#fff"/>
    <g id="Group_9" data-name="Group 9" transform="translate(296.476 75.147)">
      <path id="Path_2" data-name="Path 2" d="M265.055,75.533q0,7.562-3.138,10.969T251.9,89.91q-6.878,0-10.04-3.429T238.7,75.513q0-7.54,3.139-10.949t10.04-3.409q6.9,0,10.04,3.409T265.055,75.533Zm-16.691,0a13.616,13.616,0,0,0,.682,5.061,2.784,2.784,0,0,0,2.851,1.548,2.749,2.749,0,0,0,2.831-1.527,14.066,14.066,0,0,0,.66-5.1,14.282,14.282,0,0,0-.639-5.083,2.735,2.735,0,0,0-2.829-1.507,2.8,2.8,0,0,0-2.873,1.548A13.617,13.617,0,0,0,248.364,75.533Z" transform="translate(-238.699 -60.868)" fill="#fff"/>
      <path id="Path_3" data-name="Path 3" d="M267.918,89.391V61.712h9.42L283.7,72.205h.578V61.712h9.584V89.391H284.4l-6.278-11.277h-.62V89.391Z" transform="translate(-239.663 -60.886)" fill="#fff"/>
      <path id="Path_4" data-name="Path 4" d="M315.9,89.391h-18.59V61.712H306.9V81.583H315.9Z" transform="translate(-240.633 -60.886)" fill="#fff"/>
      <path id="Path_5" data-name="Path 5" d="M318.071,67.178v-6.32h9.338v6.32Zm.043,22.184V68.5h9.254V89.363Z" transform="translate(-241.317 -60.858)" fill="#fff"/>
      <path id="Path_6" data-name="Path 6" d="M330.163,89.391V61.712h9.419l6.362,10.493h.578V61.712h9.584V89.391h-9.461l-6.278-11.277h-.62V89.391Z" transform="translate(-241.716 -60.886)" fill="#fff"/>
      <path id="Path_7" data-name="Path 7" d="M359.555,89.391V61.712h20.738v7.642H369.139V71.71h8.674v7.559h-8.674v2.478h11.154v7.643Z" transform="translate(-242.686 -60.886)" fill="#fff"/>
    </g>
    <g id="Group_10" data-name="Group 10" transform="translate(105.496 75.147)">
      <path id="Path_8" data-name="Path 8" d="M80.16,69.57q-5.874-.626-8.54-.625a16.812,16.812,0,0,0-3.1.146.584.584,0,0,0-.439.6.778.778,0,0,0,.5.709,20.719,20.719,0,0,0,3.145.833,44.362,44.362,0,0,1,4.332,1.145A10.484,10.484,0,0,1,79.1,73.966a4.774,4.774,0,0,1,1.791,2.5,14.42,14.42,0,0,1,.44,3.978q0,5.166-2.751,7.374t-8.292,2.208a44.335,44.335,0,0,1-5.6-.375q-2.941-.376-4.521-.75l-1.625-.375.416-7.375a76.316,76.316,0,0,0,10.458.917c1.442,0,2.165-.318,2.165-.958a.64.64,0,0,0-.5-.6,19.1,19.1,0,0,0-2.706-.522q-5.834-.916-7.937-2.854t-2.1-6.354q0-5.627,2.706-7.708t8.334-2.084a64.576,64.576,0,0,1,9.292.792l1.75.291Z" transform="translate(-58.329 -60.986)"/>
      <path id="Path_9" data-name="Path 9" d="M82.465,69.417V61.542H103.3v7.875H97.883V89.458H88.216V69.417Z" transform="translate(-58.925 -61)"/>
      <path id="Path_10" data-name="Path 10" d="M117.574,82.249H115.2v7.21h-9.666V61.542h11.751q6.456,0,9.25,2.146t2.791,7.959q0,5.811-3.084,8.312l2.748,9.5h-9.832Zm-.042-7.624q2.039,0,2.041-2.729t-2.29-2.73h-2.126v5.459Z" transform="translate(-59.494 -61)"/>
      <path id="Path_11" data-name="Path 11" d="M131.894,89.458V61.542h9.666V89.458Z" transform="translate(-60.145 -61)"/>
      <path id="Path_12" data-name="Path 12" d="M144.366,89.458V61.542h9.5l6.416,10.583h.583V61.542h9.666V89.458h-9.542l-6.332-11.375h-.625V89.458Z" transform="translate(-60.453 -61)"/>
      <path id="Path_13" data-name="Path 13" d="M197.162,73.028V88.611a78.248,78.248,0,0,1-11.167,1.208,20.622,20.622,0,0,1-6.188-.812,7.984,7.984,0,0,1-4.019-2.687,10.907,10.907,0,0,1-2.022-4.416,30.7,30.7,0,0,1-.564-6.459q0-8.042,3-11.251t10.122-3.208a36.69,36.69,0,0,1,4.795.355q2.666.354,4.249.688l1.583.375v7.291q-6-.54-8.522-.542a14.527,14.527,0,0,0-3.29.23,4.439,4.439,0,0,0-1.231.542,1.949,1.949,0,0,0-.665,1.228,23.8,23.8,0,0,0-.293,4.541,11.089,11.089,0,0,0,.749,4.729,3.078,3.078,0,0,0,3.042,1.481l1.416-.043V79.778h-1.247l-.042-6.75Z" transform="translate(-61.165 -60.986)"/>
      <path id="Path_14" data-name="Path 14" d="M221.435,69.57q-5.872-.626-8.54-.625a16.8,16.8,0,0,0-3.1.146.585.585,0,0,0-.44.6.78.78,0,0,0,.5.709,20.71,20.71,0,0,0,3.146.833,44.436,44.436,0,0,1,4.332,1.145,10.478,10.478,0,0,1,3.041,1.585,4.775,4.775,0,0,1,1.792,2.5,14.457,14.457,0,0,1,.44,3.978q0,5.166-2.752,7.374t-8.292,2.208a44.32,44.32,0,0,1-5.6-.375q-2.941-.376-4.521-.75l-1.626-.375.417-7.375a76.3,76.3,0,0,0,10.457.917q2.164,0,2.166-.958a.64.64,0,0,0-.5-.6,19.1,19.1,0,0,0-2.707-.522q-5.834-.916-7.937-2.854t-2.1-6.354q0-5.627,2.707-7.708t8.334-2.084a64.576,64.576,0,0,1,9.292.792l1.749.291Z" transform="translate(-61.816 -60.986)"/>
    </g>
    <path id="Path_25" data-name="Path 25" d="M289.573,61.3s-7.086.264-7.086,7.6v41.436a7.661,7.661,0,0,0,7.462,7.853C289.949,111.494,289.573,61.3,289.573,61.3Z" transform="translate(-2)"/>
  </g>
</svg>
